<svg xmlns="http://www.w3.org/2000/svg" viewBox="0 0 52.33 37.28"><defs><style>.cls-1{fill:#fff;}</style></defs><title>Camera</title><g id="Layer_2" data-name="Layer 2"><g id="SVG"><g id="camera"><path class="cls-1" d="M52.33,16V34a3.28,3.28,0,0,1-3.28,3.28H3.27A3.27,3.27,0,0,1,0,34V16H20.16a11.47,11.47,0,0,0-1,4.66,11.63,11.63,0,1,0,23.25,0,11.47,11.47,0,0,0-1-4.66Z"/><polygon class="cls-1" points="46.99 3.61 40.3 3.61 41.2 1.73 46.28 1.73 46.99 3.61"/><polygon class="cls-1" points="11.23 3.61 6.88 3.61 7.23 2.41 10.93 2.41 11.23 3.61"/><path class="cls-1" d="M52.33,7.53v7.13H40.75a11.62,11.62,0,0,0-19.87,0H0V7.53A3.27,3.27,0,0,1,3.27,4.25H49.05A3.28,3.28,0,0,1,52.33,7.53Z"/><path class="cls-1" d="M32.49,0H19.9L17.42,3.61H34.8ZM28.44,3H23.87V.69h4.57Z"/><path class="cls-1" d="M38.06,20.7a7.25,7.25,0,1,1-14.49,0A7.18,7.18,0,0,1,25.28,16a6.82,6.82,0,0,1,1.55-1.38,7.22,7.22,0,0,1,8,0A7,7,0,0,1,36.35,16,7.18,7.18,0,0,1,38.06,20.7Z"/></g></g></g></svg>