<svg xmlns="http://www.w3.org/2000/svg" viewBox="0 0 467.16 467.55">
    <defs>
        <style>.cls-1{fill:#ffffff;}</style>
    </defs>
    <title>Facebook</title>
    <g id="Layer_2" data-name="Layer 2">
        <g id="Layer_1-2" data-name="Layer 1">
            <path class="cls-1" d="M233.83,0C104.34.78-.74,105.71,0,233.51c.76,130.36,105,234.08,234.16,234,129.77-.05,233.78-107.33,233-234.12C466.35,104.29,361.48-.76,233.83,0Zm2.24,440c-114.86.82-207.34-91.46-207.54-206.22-.2-111.58,92.18-205.24,201.73-206.31,111.17-1.08,208,87.45,208.34,206.48C438.31,351.31,343.76,439.21,236.07,440Z" />
            <path class="cls-1" d="M317.52,177c-2.32,18.62-4.59,36.89-6.92,55.62H259.9V398.16H184.79v-165H148.9c-.12-2-.3-3.6-.31-5.19,0-15.33.09-30.66-.11-46,0-3.69,1.05-5.09,4.77-5,7.66.19,15.33.09,23,.09,8.27,0,8.46-.23,8.54-8.31.16-15.82-.51-31.72.77-47.45,2.21-27.22,23-48.84,50.23-51.33,22-2,44.25-1.68,66.39-2.33,4.77-.13,9.55,0,14.74,0v57.67c-6.41,0-12.35-.06-18.28,0-8,.09-16-.12-24,.53s-13.35,5.4-13.92,13.27c-.85,11.6-.52,23.29-.58,34.94,0,3.39,2.72,2.72,4.77,2.73,15.67,0,31.33,0,47,0C313.55,176.79,315.18,176.93,317.52,177Z" />
        </g>
    </g>
</svg>