<svg xmlns="http://www.w3.org/2000/svg" viewBox="0 0 433.39 433.4">
    <defs>
        <style>.cls-1{fill:#ffffff;}</style>
    </defs>
    <title>Instagram</title>
    <g id="Layer_2" data-name="Layer 2">
        <g id="Layer_1-2" data-name="Layer 1">
            <path class="cls-1" d="M433.08,157.72c-.22-20.76-.24-41.64-4.82-62.07C418.2,50.83,391.73,20.92,347.37,7.51c-20.64-6.24-42-6.73-63.25-7Q227.46-.25,170.81.09c-23.44.12-47-.23-70.15,4.07C53.31,12.94,21.46,39.66,7.4,86.34,1.28,106.65.78,127.67.51,148.61Q-.24,205,.07,261.42c.12,23.93-.11,48,4.12,71.64,6.67,37.36,25.69,66.29,59.77,84.17C83.62,427.55,105.07,431,127,432.12c31.42,1.55,62.87,1.21,94.31,1.23,13.31,0,26.63.13,39.94,0,21.45-.27,42.91-.38,64.25-2.94,52.94-6.36,90.39-39.54,102.34-90.84,4.95-21.22,5-42.92,5.22-64.51Q433.68,216.38,433.08,157.72ZM392.19,313.38c-1.84,23.2-8.83,44.27-27.39,60-12.65,10.71-27.64,15.64-43.67,17.94-17.34,2.47-34.84,2.47-52.29,2.6-34.94.27-69.88.39-104.82,0-20.41-.25-41,.29-61.08-4.3-35.14-8-56.92-32.81-61-68.68-2-17.06-2.35-34.18-2.5-51.3-.3-35.43-.37-70.87,0-106.31.22-19.58-.19-39.31,3.89-58.64C51,68.56,75.53,46.43,112.17,42c17-2.08,34.18-2.39,51.29-2.54,35.44-.3,70.88-.4,106.31,0,20.08.25,40.32-.3,60.1,4.2,35.66,8.11,57.2,32.44,61.54,68.76,2,16.89,2.2,33.85,2.5,50.8.32,18,.07,35.94.07,53.9C393.84,249.22,394.73,281.35,392.19,313.38Z" />
            <path class="cls-1" d="M216.85,105.29c-61.16-.23-111.32,49.55-111.52,110.69-.21,61.51,49.14,111.7,110.15,112A111.29,111.29,0,0,0,328,216.87C328.3,155.52,278.48,105.53,216.85,105.29Zm1.43,183.38c-41.76,0-73.59-31.44-73.62-72.76,0-39.14,32.47-71.23,72.15-71.24,40.13,0,71.86,32.21,71.86,73C288.66,255.88,256.18,288.65,218.28,288.67Z" />
            <path class="cls-1" d="M358.39,100.94a26.08,26.08,0,1,1-26-26A25.89,25.89,0,0,1,358.39,100.94Z" />
        </g>
    </g>
</svg>