<svg xmlns="http://www.w3.org/2000/svg" viewBox="0 0 344.6 344.6"><defs><style>.cls-1{fill:#fff;}</style></defs><title>Rangrootz</title><g id="Layer_2" data-name="Layer 2"><g id="Layer_1-2" data-name="Layer 1"><rect width="344.6" height="344.6" rx="28.78"/><path class="cls-1" d="M303.31,108a53.28,53.28,0,0,0-14.63-21q-9.9-8.76-25.12-13.64t-36-4.88H135.28q-21.24,0-36.38,4.38T74.07,85.2a47.27,47.27,0,0,0-14.2,18.87,66.14,66.14,0,0,0-1.44,44A57.28,57.28,0,0,0,67.33,165a59.77,59.77,0,0,0,14.35,13.34,75.2,75.2,0,0,0,19.44,9.19,38.16,38.16,0,0,0-12.63,11.91L36.55,276.06H71.27a16.94,16.94,0,0,0,8.54-2,17.52,17.52,0,0,0,6-5.74l43.62-66.44a15.3,15.3,0,0,1,5.38-5.31c2-1.06,4.86-1.58,8.68-1.58H160v81.08h38.6V203h29q20.22,0,35.3-5T288,183.93A57.46,57.46,0,0,0,303,162.33a73.89,73.89,0,0,0,5-27.62A73.08,73.08,0,0,0,303.31,108ZM160,167.28H135.85a59.93,59.93,0,0,1-19-2.72A36.69,36.69,0,0,1,103.49,157a30.15,30.15,0,0,1-7.82-11.41,39.47,39.47,0,0,1-2.58-14.49q0-15.78,10.4-24.25t31.79-8.47H160Zm106.9-16.72a31.17,31.17,0,0,1-7.74,12.06,34.45,34.45,0,0,1-13.06,7.6,58.21,58.21,0,0,1-18.51,2.66h-29V98.4h29a61.44,61.44,0,0,1,18.51,2.51,34.58,34.58,0,0,1,13.06,7.25,29.78,29.78,0,0,1,7.74,11.48,41.69,41.69,0,0,1,2.59,15.07A45.91,45.91,0,0,1,266.86,150.56Z"/></g></g></svg>